<svg xmlns="http://www.w3.org/2000/svg" width="29" height="56" viewBox="0 0 29 56" class="dd-glyph-svg dd-glyph-elevated" aria-hidden="true">
  <path d="M27.707,18.248a7.851,7.851,0,0,0-3.751,6.6,7.64,7.64,0,0,0,4.649,7.008,18.257,18.257,0,0,1-2.381,4.919c-1.482,2.134-3.032,4.268-5.391,4.268s-2.965-1.37-5.683-1.37c-2.65,0-3.594,1.415-5.75,1.415s-3.661-1.977-5.391-4.4A21.279,21.279,0,0,1,.395,25.211c0-6.738,4.38-10.31,8.692-10.31,2.291,0,4.2,1.5,5.638,1.5,1.37,0,3.5-1.595,6.109-1.595A8.172,8.172,0,0,1,27.707,18.248Z"></path>
  <path d="M14.9,14.43a2.581,2.581,0,0,1-.472-.045,3.083,3.083,0,0,1-.067-.629,7.531,7.531,0,0,1,1.909-4.694,7.76,7.76,0,0,1,5.1-2.628,3.329,3.329,0,0,1,.067.7A7.745,7.745,0,0,1,19.6,11.959,6.728,6.728,0,0,1,14.9,14.43Z"></path>
</svg>